<svg xmlns="http://www.w3.org/2000/svg" viewBox="0 0 1231.2 377.16"><defs><style>.cls-1{fill:#5da9b3;}</style></defs><title>Ресурс 5</title><g id="Слой_2" data-name="Слой 2"><g id="Слой_1-2" data-name="Слой 1"><polygon class="cls-1" points="464.2 169.2 464.2 239.71 496.31 239.71 496.31 155.12 496.31 150.3 486.89 150.3 496.31 137.78 496.31 137.76 496.31 116.86 504.65 116.86 504.65 126.82 531.55 91.52 531.55 44.3 527.29 44.3 527.29 33.12 547.25 33.12 547.25 44.3 543.13 44.3 543.13 76.32 560.4 53.66 589.58 53.66 649.78 137.76 688.76 92.5 749.42 92.5 749.42 70.66 757.27 70.66 757.27 82.53 814.66 5.72 843 46.29 843 25.58 856.91 25.58 856.91 66.21 869.32 83.96 869.81 84.65 869.81 70.66 877.28 70.66 877.28 95.21 886.62 108.41 872.77 108.41 872.77 294.88 424.99 294.88 424.99 122.06 475.55 169.2 464.2 169.2"/><polygon class="cls-1" points="928.22 135.12 968.87 69.53 975.45 69.53 977.76 73.66 980.7 78.91 1019.52 78.93 1019.51 78.91 1032.1 78.91 1032.1 72.34 1032.1 68.28 1030.62 68.28 1030.62 60.04 1042.51 60.04 1052.3 60.04 1052.3 68.28 1049.86 68.28 1049.86 72.34 1049.86 78.94 1070.94 78.95 1070.92 78.91 1066.53 78.91 1072.92 69.53 1079.49 69.53 1116.19 135.13 1116.19 142.57 1127.9 123.67 1134.48 123.67 1137.29 128.69 1139.73 133.05 1154.63 133.06 1154.63 114.43 1154.63 110.37 1153.14 110.37 1153.14 102.12 1165.03 102.12 1174.83 102.12 1174.83 110.37 1172.39 110.37 1172.39 114.43 1172.39 133.07 1225.56 133.05 1231.2 124.77 1231.2 377.16 928.22 377.16 928.22 135.12"/><polygon class="cls-1" points="32.11 55.36 83.92 103.66 83.92 90.03 104.94 90.03 104.94 128.31 123.29 128.31 123.29 107.74 127.72 107.74 127.72 115.62 171.53 74.78 215.34 115.62 215.34 107.74 220.66 107.74 220.66 170.48 253.52 171.05 253.52 154.52 253.52 141.59 240.7 141.59 291.25 94.46 291.25 55.36 285.24 55.36 285.24 52.54 358.89 0 385.82 19.59 385.82 13.8 392.63 13.8 392.63 23.18 431.33 52.54 431.33 55.36 424.99 55.36 424.99 94.46 424.99 300.6 0 298.94 0 25.39 32.11 25.39 32.11 55.36"/></g></g></svg>