<svg xmlns="http://www.w3.org/2000/svg" viewBox="0 0 1952.08 224.51"><defs><style>.cls-1{fill:#bad3d2;}.cls-2{fill:#fff;}</style></defs><title>Ресурс 3</title><g id="Слой_2" data-name="Слой 2"><g id="Слой_1-2" data-name="Слой 1"><path class="cls-1" d="M487.86,84.76H603.58l20-34.71H453.15A34.71,34.71,0,0,0,487.86,84.76Z"/><path class="cls-1" d="M603.58,84.76H716.82a34.71,34.71,0,0,0,34.71-34.71h-128Z"/><path class="cls-2" d="M716.82,15.34h-229a34.71,34.71,0,0,0-34.71,34.71H751.54A34.71,34.71,0,0,0,716.82,15.34Z"/><path class="cls-1" d="M584.94,76.1a34.71,34.71,0,0,0,34.71,34.71H829.07A34.71,34.71,0,0,0,863.79,76.1H584.94Z"/><path class="cls-2" d="M829.07,41.38H619.66A34.71,34.71,0,0,0,584.94,76.1H863.79A34.71,34.71,0,0,0,829.07,41.38Z"/><path class="cls-1" d="M1762,34.71a34.71,34.71,0,0,0,34.71,34.71h120.67a34.71,34.71,0,0,0,34.71-34.71H1762Z"/><path class="cls-2" d="M1917.36,0H1796.69A34.71,34.71,0,0,0,1762,34.71h190.1A34.71,34.71,0,0,0,1917.36,0Z"/><path class="cls-1" d="M73.06,189.8a34.71,34.71,0,0,0,34.71,34.71H228.45a34.71,34.71,0,0,0,34.71-34.71H73.06Z"/><path class="cls-2" d="M228.45,155.09H107.77A34.71,34.71,0,0,0,73.06,189.8h190.1A34.71,34.71,0,0,0,228.45,155.09Z"/><path class="cls-1" d="M0,128a34.71,34.71,0,0,0,34.71,34.71H155.39A34.71,34.71,0,0,0,190.1,128H0Z"/><path class="cls-2" d="M155.39,93.25H34.71A34.71,34.71,0,0,0,0,128H190.1A34.71,34.71,0,0,0,155.39,93.25Z"/></g></g></svg>