<svg xmlns="http://www.w3.org/2000/svg" viewBox="0 0 2834.65 840.95"><defs><style>.cls-1{fill:#878c22;}.cls-2{fill:#aab538;}.cls-3{fill:#f6cd96;}.cls-4{fill:#7a6160;}.cls-5{fill:#c7915d;}.cls-6{fill:#544348;}.cls-7{fill:#e9aa6d;}.cls-8{fill:#e7e765;}.cls-9{fill:#736357;}.cls-10{fill:#104c61;}.cls-11{fill:#77c9d4;}.cls-12{fill:#408891;}.cls-13{fill:#bd6644;}.cls-14{fill:#5da9b3;}.cls-15{fill:#99cdd4;}.cls-16{fill:#f9b69d;}.cls-17{fill:#e47b52;}.cls-18{fill:#e9da97;}.cls-19{fill:#fff7db;}.cls-20{fill:#fff;}.cls-21{fill:#f9e3db;}.cls-22{fill:#f9936e;}.cls-23{fill:#b3a1a1;}.cls-24{fill:#4d4d4d;}.cls-25{fill:#d6565b;}.cls-26{fill:#c4c4c4;}.cls-27{fill:#c1272d;}.cls-28{fill:#e0e0e0;}.cls-29{fill:#969696;}.cls-30{fill:#382d31;}.cls-31{fill:#423338;}.cls-32{fill:#844634;}</style></defs><title>Ресурс 1</title><g id="Слой_2" data-name="Слой 2"><g id="Слой_1-2" data-name="Слой 1"><path class="cls-1" d="M301.37,530.93a59.51,59.51,0,0,0,28.52-7.23h68.48V447.78h-42A59.85,59.85,0,0,0,283.7,414a58.69,58.69,0,0,0-91.64-25.95,66.74,66.74,0,0,0-132.63,8A48.06,48.06,0,0,0,0,396.39V523.7H272.85A59.51,59.51,0,0,0,301.37,530.93Z"/><path class="cls-1" d="M1662.4,413.11a66.74,66.74,0,0,0-132.63,8,48.11,48.11,0,0,0-75.66,51.66h-53.22v75.92h329.57V409.63a58.66,58.66,0,0,0-68.06,3.47Z"/><path class="cls-2" d="M155.17,577.07a38.89,38.89,0,0,0,18.64-4.73h44.76V522.72H191.14a39.12,39.12,0,0,0-47.51-22.06,38.36,38.36,0,0,0-59.9-17A43.62,43.62,0,0,0,0,474.58v97.76H136.53A38.89,38.89,0,0,0,155.17,577.07Z"/><path class="cls-1" d="M2745.38,328.68a66.73,66.73,0,0,0-66.69,64.44,48.06,48.06,0,0,0-59.43.28V520.7h215.38V373.86a58.53,58.53,0,0,0-23.32,11.22A66.76,66.76,0,0,0,2745.38,328.68Z"/><path class="cls-2" d="M2774.43,495.93a39.06,39.06,0,0,0-11.55,1.74,38.36,38.36,0,0,0-59.9-17,43.62,43.62,0,0,0-83.73-9.12v97.76h136.53a39.13,39.13,0,0,0,37.28,0h41.57V519.72H2810.4A39.08,39.08,0,0,0,2774.43,495.93Z"/><polygon class="cls-3" points="413.74 319.13 181.68 319.13 181.68 297.53 164.46 297.54 164.46 534.85 181.68 534.72 413.74 534.72 413.74 534.85 430.97 534.72 430.97 319.13 430.97 297.53 413.74 297.54 413.74 319.13"/><rect class="cls-4" x="164.46" y="431.94" width="266.51" height="114.4"/><polygon class="cls-5" points="430.97 297.53 430.97 534.72 614.82 534.72 614.82 297.53 517.42 146.5 430.97 297.53"/><rect class="cls-6" x="430.97" y="431.94" width="190.35" height="114.4"/><polygon class="cls-7" points="164.46 297.54 181.68 297.53 268.14 146.5 252.38 146.5 164.46 297.54"/><polygon class="cls-5" points="181.68 297.53 181.45 319.13 272.93 168.1 283.44 168.1 268.14 146.5 181.68 297.53"/><rect class="cls-3" x="410.84" y="110.89" width="17.79" height="57.27"/><rect class="cls-5" x="428.63" y="110.89" width="24.77" height="57.27"/><rect class="cls-7" x="404.98" y="96.89" width="23.47" height="18.98"/><rect class="cls-5" x="428.46" y="96.89" width="28.49" height="18.98"/><polygon class="cls-4" points="272.65 168.21 175.51 329.06 406.43 329.06 413.74 319.13 413.74 297.54 489.09 168.1 272.65 168.21"/><polygon class="cls-7" points="413.74 297.54 430.97 297.53 517.42 146.5 501.66 146.5 413.74 297.54"/><polygon class="cls-6" points="181.45 329.06 181.45 335.26 413.74 335.26 413.74 319.13 406.43 329.06 181.45 329.06"/><rect class="cls-5" x="410.84" y="115.87" width="17.79" height="9.34"/><rect class="cls-4" x="428.46" y="115.87" width="24.93" height="9.34"/><polygon class="cls-3" points="236.08 287.76 236.08 319.13 367.41 319.13 367.41 287.76 301.75 258.86 236.08 287.76"/><polygon class="cls-5" points="301.75 258.86 367.41 287.76 367.41 319.13 378.36 304.76 378.36 287.76 311.77 258.86 301.75 258.86"/><rect class="cls-5" x="155.17" y="431.94" width="276.36" height="7.67"/><rect class="cls-4" x="431.53" y="431.94" width="189.79" height="7.67"/><rect class="cls-6" x="164.46" y="439.61" width="267.07" height="5.72"/><path class="cls-2" d="M523.71,347.42V427.6l56.6-39.76A59.84,59.84,0,0,0,523.71,347.42Z"/><path class="cls-1" d="M523.71,427.6V467a59.85,59.85,0,0,0,56.6-79.2Z"/><path class="cls-8" d="M523.71,467V427.6l-37.42,26.29A59.56,59.56,0,0,0,523.71,467Z"/><path class="cls-8" d="M463.9,407.23a59.7,59.7,0,0,0,22.39,46.66l37.42-26.29V347.42A59.81,59.81,0,0,0,463.9,407.23Z"/><path class="cls-9" d="M523.85,406.13a3.34,3.34,0,0,0-3.34,3.34v114a3.34,3.34,0,1,0,6.67,0v-114A3.34,3.34,0,0,0,523.85,406.13Z"/><path class="cls-9" d="M541.77,430.95l-19.94,15a3.34,3.34,0,0,0,4,5.33l19.94-15a3.34,3.34,0,1,0-4-5.33Z"/><path class="cls-9" d="M525.88,436.22l-15.51-11.92a3.34,3.34,0,1,0-4.06,5.29l15.51,11.92a3.34,3.34,0,1,0,4.06-5.29Z"/><polygon class="cls-10" points="1035.15 200.21 1017.81 200.21 1017.81 176.49 999.42 176.49 999.42 151.32 981.41 151.32 981.41 126.67 963.41 126.67 963.41 102.06 944.14 102.06 944.14 75.68 924.22 75.68 924.22 48.42 905.58 48.42 905.58 22.93 893.37 22.93 881.3 22.93 881.3 48.42 862.88 48.42 862.88 75.68 843.18 75.68 843.18 102.06 824.13 102.06 824.13 126.67 806.34 126.67 806.34 151.32 788.53 151.32 788.53 176.49 770.34 176.49 770.34 200.21 753.2 200.21 753.2 222.02 736.03 222.02 736.03 546.82 893.37 546.34 1052.52 546.82 1052.52 222.02 1035.15 222.02 1035.15 200.21"/><polygon class="cls-11" points="1023.83 200.21 1006.5 200.21 1006.5 176.49 988.11 176.49 988.11 151.32 970.09 151.32 970.09 126.67 952.1 126.67 952.1 102.06 932.82 102.06 932.82 75.68 912.9 75.68 912.9 48.42 894.26 48.42 894.26 22.93 882.06 22.93 869.99 22.93 869.99 48.42 851.56 48.42 851.56 75.68 831.87 75.68 831.87 102.06 812.81 102.06 812.81 126.67 795.02 126.67 795.02 151.32 777.21 151.32 777.21 176.49 759.03 176.49 759.03 200.21 741.88 200.21 741.88 222.02 724.72 222.02 724.72 546.82 882.06 546.34 1041.2 546.82 1041.2 222.02 1023.83 222.02 1023.83 200.21"/><rect class="cls-12" x="876.76" y="254.42" width="156.62" height="292.4"/><rect class="cls-10" x="876.76" y="250.44" width="156.62" height="11.28"/><polygon class="cls-13" points="707.2 43.44 878.28 254.41 1040.8 254.41 879.2 43.44 707.2 43.44"/><polygon class="cls-14" points="859.39 200.21 842.05 200.21 842.05 176.49 823.66 176.49 823.66 151.32 805.65 151.32 805.65 126.67 787.65 126.67 787.65 102.06 768.38 102.06 768.38 75.68 748.46 75.68 748.46 48.42 729.82 48.42 729.82 22.93 717.61 22.93 705.54 22.93 705.54 48.42 687.12 48.42 687.12 75.68 667.42 75.68 667.42 102.06 648.37 102.06 648.37 126.67 630.58 126.67 630.58 151.32 612.76 151.32 612.76 176.49 594.58 176.49 594.58 200.21 577.44 200.21 577.44 222.02 560.27 222.02 560.27 546.82 717.61 546.34 876.76 546.82 876.76 222.02 859.39 222.02 859.39 200.21"/><polygon class="cls-15" points="848.07 200.21 830.73 200.21 830.73 176.49 812.35 176.49 812.35 151.32 794.33 151.32 794.33 126.67 776.34 126.67 776.34 102.06 757.06 102.06 757.06 75.68 737.14 75.68 737.14 48.42 718.5 48.42 718.5 22.93 706.3 22.93 694.23 22.93 694.23 48.42 675.8 48.42 675.8 75.68 656.11 75.68 656.11 102.06 637.05 102.06 637.05 126.67 619.26 126.67 619.26 151.32 601.45 151.32 601.45 176.49 583.27 176.49 583.27 200.21 566.13 200.21 566.13 222.02 548.95 222.02 548.95 546.82 706.3 546.34 865.44 546.82 865.44 222.02 848.07 222.02 848.07 200.21"/><polygon class="cls-10" points="848.07 200.21 830.73 200.21 830.73 176.49 812.35 176.49 812.35 151.32 794.33 151.32 794.33 126.67 776.34 126.67 776.34 102.06 757.06 102.06 757.06 75.68 737.14 75.68 737.14 48.42 718.5 48.42 718.5 22.93 706.3 22.93 694.23 22.93 694.23 48.42 675.8 48.42 675.8 75.68 656.11 75.68 656.11 102.06 637.05 102.06 637.05 126.67 619.26 126.67 619.26 151.32 601.45 151.32 601.45 176.49 583.27 176.49 583.27 200.21 566.13 200.21 566.13 222.02 548.95 222.02 548.95 263.11 706.3 48.42 865.44 263.11 865.44 222.02 848.07 222.02 848.07 200.21"/><polygon class="cls-16" points="1335.46 194.47 1103.4 194.47 1103.4 172.87 1086.17 172.88 1086.17 534.85 1103.4 534.72 1335.46 534.72 1335.46 534.85 1352.68 534.72 1352.68 194.47 1352.68 172.87 1335.46 172.88 1335.46 194.47"/><rect class="cls-4" x="1086.17" y="412.46" width="266.51" height="133.88"/><polygon class="cls-17" points="1352.68 172.87 1352.68 534.72 1536.54 534.72 1536.54 172.87 1439.14 21.84 1352.68 172.87"/><rect class="cls-6" x="1352.68" y="412.46" width="190.35" height="133.88"/><polygon class="cls-16" points="1086.17 172.88 1103.4 172.87 1189.85 21.84 1174.09 21.84 1086.17 172.88"/><polygon class="cls-17" points="1103.4 172.87 1103.17 194.47 1194.64 43.44 1205.16 43.44 1189.85 21.84 1103.4 172.87"/><polygon class="cls-4" points="1194.37 43.55 1097.23 204.4 1328.15 204.4 1335.46 194.47 1335.46 172.88 1410.81 43.44 1194.37 43.55"/><polygon class="cls-16" points="1335.46 172.88 1352.68 172.87 1439.14 21.84 1423.38 21.84 1335.46 172.88"/><polygon class="cls-6" points="1103.17 204.4 1103.17 210.6 1335.46 210.6 1335.46 194.47 1328.15 204.4 1103.17 204.4"/><rect class="cls-16" x="1245.1" y="14" width="17.79" height="107.4"/><polygon class="cls-17" points="1262.88 121.4 1287.65 86.72 1287.65 14 1262.88 14 1262.88 121.4"/><rect class="cls-16" x="1239.24" width="23.47" height="18.98"/><rect class="cls-17" x="1262.71" width="28.49" height="18.98"/><rect class="cls-17" x="1245.1" y="18.98" width="17.79" height="9.34"/><rect class="cls-13" x="1262.71" y="18.98" width="24.93" height="9.34"/><polygon class="cls-6" points="1287.65 86.72 1317.82 43.44 1287.65 43.44 1287.65 86.72"/><polygon class="cls-18" points="323.39 413.7 350.45 413.7 323.39 353.14 323.39 413.7"/><polygon class="cls-19" points="350.45 413.7 350.45 353.14 323.39 353.14 350.45 413.7"/><polygon class="cls-18" points="387.11 413.7 414.17 413.7 387.11 353.14 387.11 413.7"/><polygon class="cls-19" points="414.17 413.7 414.17 353.14 387.11 353.14 414.17 413.7"/><polygon class="cls-10" points="190.11 413.7 217.87 413.7 190.11 353.14 190.11 413.7"/><polygon class="cls-12" points="217.87 413.7 217.87 353.14 190.11 353.14 217.87 413.7"/><polygon class="cls-10" points="256.75 413.7 283.81 413.7 256.75 353.14 256.75 413.7"/><polygon class="cls-12" points="283.81 413.7 283.81 353.14 256.75 353.14 283.81 413.7"/><polygon class="cls-10" points="323.39 511.47 350.45 511.47 323.39 450.91 323.39 511.47"/><polygon class="cls-12" points="350.45 511.47 350.45 450.91 323.39 450.91 350.45 511.47"/><polygon class="cls-10" points="387.11 511.47 414.17 511.47 387.11 450.91 387.11 511.47"/><polygon class="cls-12" points="414.17 511.47 414.17 450.91 387.11 450.91 414.17 511.47"/><polygon class="cls-10" points="190.11 511.47 217.87 511.47 190.11 450.91 190.11 511.47"/><polygon class="cls-12" points="217.87 511.47 217.87 450.91 190.11 450.91 217.87 511.47"/><polygon class="cls-10" points="256.75 511.47 283.81 511.47 256.75 450.91 256.75 511.47"/><polygon class="cls-12" points="283.81 511.47 283.81 450.91 256.75 450.91 283.81 511.47"/><rect class="cls-5" x="181.36" y="353.14" width="8.76" height="60.56"/><rect class="cls-5" x="248" y="353.14" width="8.76" height="60.56"/><rect class="cls-5" x="314.64" y="353.14" width="8.76" height="60.56"/><rect class="cls-5" x="378.36" y="353.14" width="8.76" height="60.56"/><rect class="cls-6" x="181.36" y="450.91" width="8.76" height="60.56"/><rect class="cls-6" x="248" y="450.91" width="8.76" height="60.56"/><rect class="cls-6" x="314.64" y="450.91" width="8.76" height="60.56"/><rect class="cls-6" x="378.36" y="450.91" width="8.76" height="60.56"/><polygon class="cls-20" points="189.97 413.8 217.87 413.8 217.87 409.99 193.78 409.99 193.78 356.88 217.87 356.88 217.87 353.07 189.97 353.07 189.97 413.8"/><polygon class="cls-20" points="255.91 413.8 283.81 413.8 283.81 409.99 259.72 409.99 259.72 356.88 283.81 356.88 283.81 353.07 255.91 353.07 255.91 413.8"/><polygon class="cls-20" points="322.54 413.79 350.45 413.79 350.45 409.98 326.36 409.98 326.36 356.87 350.45 356.87 350.45 353.05 322.54 353.05 322.54 413.79"/><polygon class="cls-20" points="386.26 413.79 414.17 413.79 414.17 409.98 390.08 409.98 390.08 356.87 414.17 356.87 414.17 353.05 386.26 353.05 386.26 413.79"/><polygon class="cls-20" points="189.97 511.57 217.87 511.57 217.87 507.76 193.78 507.76 193.78 454.65 217.87 454.65 217.87 450.83 189.97 450.83 189.97 511.57"/><polygon class="cls-20" points="255.91 511.57 283.81 511.57 283.81 507.76 259.72 507.76 259.72 454.65 283.81 454.65 283.81 450.83 255.91 450.83 255.91 511.57"/><polygon class="cls-20" points="322.54 511.56 350.45 511.56 350.45 507.75 326.36 507.75 326.36 454.63 350.45 454.63 350.45 450.82 322.54 450.82 322.54 511.56"/><polygon class="cls-20" points="386.26 511.56 414.17 511.56 414.17 507.75 390.08 507.75 390.08 454.63 414.17 454.63 414.17 450.82 386.26 450.82 386.26 511.56"/><polygon class="cls-12" points="784.64 508.54 811.7 508.54 784.64 447.98 784.64 508.54"/><polygon class="cls-10" points="811.7 508.54 811.7 447.98 784.64 447.98 811.7 508.54"/><polygon class="cls-12" points="672.51 418.08 699.94 418.08 672.51 356.7 672.51 418.08"/><polygon class="cls-10" points="699.94 418.08 699.94 356.7 672.51 356.7 699.94 418.08"/><polygon class="cls-10" points="784.64 451.85 811.7 451.85 784.64 391.29 784.64 451.85"/><polygon class="cls-12" points="811.7 451.85 811.7 391.29 784.64 391.29 811.7 451.85"/><polygon class="cls-10" points="784.64 360.31 811.7 360.31 784.64 299.75 784.64 360.31"/><polygon class="cls-12" points="811.7 360.31 811.7 299.75 784.64 299.75 811.7 360.31"/><polygon class="cls-10" points="587.64 360.31 615.4 360.31 587.64 299.75 587.64 360.31"/><polygon class="cls-12" points="615.4 360.31 615.4 299.75 587.64 299.75 615.4 360.31"/><rect class="cls-12" x="661.65" y="299.42" width="11.07" height="118.66"/><rect class="cls-12" x="775.89" y="391.29" width="8.76" height="119.15"/><rect class="cls-12" x="578.89" y="299.75" width="8.76" height="60.56"/><rect class="cls-12" x="775.89" y="299.75" width="8.76" height="60.56"/><polygon class="cls-20" points="671.66 418.18 699.94 418.18 699.94 414.31 675.52 414.31 675.52 360.47 699.94 360.47 699.94 356.61 671.66 356.61 671.66 418.18"/><polygon class="cls-10" points="700.72 418.17 728.15 418.17 700.72 356.78 700.72 418.17"/><polygon class="cls-10" points="728.15 418.17 728.15 356.78 700.72 356.78 728.15 418.17"/><polygon class="cls-20" points="699.87 418.26 728.15 418.26 728.15 414.39 703.73 414.39 703.73 360.56 728.15 360.56 728.15 356.69 699.87 356.69 699.87 418.26"/><polygon class="cls-10" points="672.51 360.73 699.94 360.73 672.51 299.34 672.51 360.73"/><polygon class="cls-12" points="699.94 360.73 699.94 299.34 672.51 299.34 699.94 360.73"/><polygon class="cls-20" points="671.66 360.82 699.94 360.82 699.94 356.95 675.52 356.95 675.52 303.12 699.94 303.12 699.94 299.25 671.66 299.25 671.66 360.82"/><polygon class="cls-14" points="700.72 360.81 728.15 360.81 700.72 299.42 700.72 360.81"/><polygon class="cls-12" points="728.15 360.81 728.15 299.42 700.72 299.42 728.15 360.81"/><polygon class="cls-20" points="699.87 360.9 728.15 360.9 728.15 357.04 703.73 357.04 703.73 303.2 728.15 303.2 728.15 299.33 699.87 299.33 699.87 360.9"/><polygon class="cls-14" points="672.51 532.82 699.94 532.82 672.51 471.44 672.51 532.82"/><polygon class="cls-14" points="699.94 532.82 699.94 471.44 672.51 471.44 699.94 532.82"/><rect class="cls-12" x="661.65" y="414.16" width="11.07" height="118.66"/><polygon class="cls-20" points="671.66 532.91 699.94 532.91 699.94 529.05 675.52 529.05 675.52 475.21 699.94 475.21 699.94 471.35 671.66 471.35 671.66 532.91"/><polygon class="cls-14" points="700.72 532.9 728.15 532.9 700.72 471.52 700.72 532.9"/><polygon class="cls-12" points="728.15 532.9 728.15 471.52 700.72 471.52 728.15 532.9"/><polygon class="cls-20" points="699.87 533 728.15 533 728.15 529.13 703.73 529.13 703.73 475.29 728.15 475.29 728.15 471.43 699.87 471.43 699.87 533"/><polygon class="cls-12" points="672.51 475.46 699.94 475.46 672.51 414.08 672.51 475.46"/><polygon class="cls-10" points="699.94 475.46 699.94 414.08 672.51 414.08 699.94 475.46"/><polygon class="cls-20" points="671.66 475.55 699.94 475.55 699.94 471.69 675.52 471.69 675.52 417.85 699.94 417.85 699.94 413.99 671.66 413.99 671.66 475.55"/><polygon class="cls-14" points="700.72 475.55 728.15 475.55 700.72 414.16 700.72 475.55"/><polygon class="cls-12" points="728.15 475.55 728.15 414.16 700.72 414.16 728.15 475.55"/><polygon class="cls-20" points="699.87 475.64 728.15 475.64 728.15 471.77 703.73 471.77 703.73 417.94 728.15 417.94 728.15 414.07 699.87 414.07 699.87 475.64"/><polygon class="cls-20" points="783.79 510.44 811.7 510.44 811.7 506.63 787.61 506.63 787.61 395.01 811.7 395.01 811.7 391.2 783.79 391.2 783.79 510.44"/><polygon class="cls-18" points="589.42 508.54 616.48 508.54 589.42 447.98 589.42 508.54"/><polygon class="cls-19" points="616.48 508.54 616.48 447.98 589.42 447.98 616.48 508.54"/><polygon class="cls-19" points="589.42 451.85 616.48 451.85 589.42 391.29 589.42 451.85"/><polygon class="cls-18" points="616.48 451.85 616.48 391.29 589.42 391.29 616.48 451.85"/><rect class="cls-12" x="580.67" y="391.29" width="8.76" height="119.15"/><polygon class="cls-20" points="588.58 510.44 616.48 510.44 616.48 506.63 592.39 506.63 592.39 395.01 616.48 395.01 616.48 391.2 588.58 391.2 588.58 510.44"/><polygon class="cls-20" points="587.5 360.41 615.4 360.41 615.4 356.6 591.31 356.6 591.31 303.48 615.4 303.48 615.4 299.67 587.5 299.67 587.5 360.41"/><polygon class="cls-20" points="783.79 360.39 811.7 360.39 811.7 356.58 787.61 356.58 787.61 303.47 811.7 303.47 811.7 299.66 783.79 299.66 783.79 360.39"/><path class="cls-10" d="M694.92,268.87c-18.37,0-33.26,13.68-33.26,30.56h66.53C728.18,282.55,713.29,268.87,694.92,268.87Z"/><path class="cls-20" d="M699.81,269.09c-16,1.76-28.37,14.66-28.37,30.34h56.75C728.18,283.75,715.78,270.85,699.81,269.09Z"/><path class="cls-12" d="M702.87,273c-15.18,0-27.49,11.85-27.49,26.47h52.78a30.88,30.88,0,0,0-7.54-20.2A28,28,0,0,0,702.87,273Z"/><rect class="cls-20" x="1199.61" y="440.1" width="39.23" height="81.62"/><polygon class="cls-10" points="1261.06 389.03 1288.12 389.03 1261.06 328.48 1261.06 389.03"/><polygon class="cls-12" points="1288.12 389.03 1288.12 328.48 1261.06 328.48 1288.12 389.03"/><polygon class="cls-10" points="1308.78 389.03 1335.84 389.03 1308.78 328.48 1308.78 389.03"/><polygon class="cls-12" points="1335.84 389.03 1335.84 328.48 1308.78 328.48 1335.84 389.03"/><polygon class="cls-18" points="1111.78 389.03 1139.54 389.03 1111.78 328.48 1111.78 389.03"/><polygon class="cls-19" points="1139.54 389.03 1139.54 328.48 1111.78 328.48 1139.54 389.03"/><polygon class="cls-10" points="1160.51 389.03 1187.57 389.03 1160.51 328.48 1160.51 389.03"/><polygon class="cls-12" points="1187.57 389.03 1187.57 328.48 1160.51 328.48 1187.57 389.03"/><polygon class="cls-10" points="1260.41 440.45 1260.41 455.45 1260.41 512.3 1314.96 512.35 1283.46 440.48 1260.41 440.45"/><polygon class="cls-12" points="1314.96 512.35 1335.72 512.43 1335.72 440.45 1283.46 440.48 1314.96 512.35"/><rect class="cls-17" x="1103.02" y="328.47" width="8.76" height="60.56"/><rect class="cls-17" x="1151.76" y="328.47" width="8.76" height="60.56"/><rect class="cls-17" x="1252.3" y="328.47" width="8.76" height="60.56"/><rect class="cls-17" x="1300.02" y="328.47" width="8.76" height="60.56"/><rect class="cls-6" x="1251.66" y="440.53" width="8.76" height="71.83"/><rect class="cls-6" x="1195.23" y="440.1" width="4.38" height="82.62"/><polygon class="cls-20" points="1111.63 389.13 1139.54 389.13 1139.54 385.32 1115.44 385.32 1115.44 332.21 1139.54 332.21 1139.54 328.4 1111.63 328.4 1111.63 389.13"/><polygon class="cls-20" points="1159.66 389.13 1187.57 389.13 1187.57 385.32 1163.48 385.32 1163.48 332.21 1187.57 332.21 1187.57 328.4 1159.66 328.4 1159.66 389.13"/><polygon class="cls-10" points="1209.44 492.02 1227.82 492.02 1209.44 450.89 1209.44 492.02"/><polygon class="cls-12" points="1227.82 492.02 1227.82 450.89 1209.44 450.89 1227.82 492.02"/><polygon class="cls-20" points="1260.21 389.12 1288.12 389.12 1288.12 385.31 1264.02 385.31 1264.02 332.2 1288.12 332.2 1288.12 328.39 1260.21 328.39 1260.21 389.12"/><polygon class="cls-20" points="1307.93 389.12 1335.84 389.12 1335.84 385.31 1311.74 385.31 1311.74 332.2 1335.84 332.2 1335.84 328.39 1307.93 328.39 1307.93 389.12"/><polygon class="cls-10" points="1260.94 293.37 1288 293.37 1260.94 232.82 1260.94 293.37"/><polygon class="cls-12" points="1288 293.37 1288 232.82 1260.94 232.82 1288 293.37"/><polygon class="cls-18" points="1308.66 293.37 1335.72 293.37 1308.66 232.82 1308.66 293.37"/><polygon class="cls-19" points="1335.72 293.37 1335.72 232.82 1308.66 232.82 1335.72 293.37"/><polygon class="cls-10" points="1111.66 293.37 1139.42 293.37 1111.66 232.82 1111.66 293.37"/><polygon class="cls-12" points="1139.42 293.37 1139.42 232.82 1111.66 232.82 1139.42 293.37"/><polygon class="cls-10" points="1160.39 293.37 1187.45 293.37 1160.39 232.82 1160.39 293.37"/><polygon class="cls-12" points="1187.45 293.37 1187.45 232.82 1160.39 232.82 1187.45 293.37"/><rect class="cls-17" x="1102.91" y="232.82" width="8.76" height="60.56"/><rect class="cls-17" x="1151.64" y="232.82" width="8.76" height="60.56"/><rect class="cls-17" x="1252.19" y="232.82" width="8.76" height="60.56"/><rect class="cls-17" x="1299.91" y="232.82" width="8.76" height="60.56"/><polygon class="cls-20" points="1111.52 293.48 1139.42 293.48 1139.42 289.66 1115.33 289.66 1115.33 236.55 1139.42 236.55 1139.42 232.74 1111.52 232.74 1111.52 293.48"/><polygon class="cls-20" points="1159.55 293.48 1187.45 293.48 1187.45 289.66 1163.36 289.66 1163.36 236.55 1187.45 236.55 1187.45 232.74 1159.55 232.74 1159.55 293.48"/><polygon class="cls-20" points="1260.1 293.46 1288 293.46 1288 289.65 1263.91 289.65 1263.91 236.54 1288 236.54 1288 232.73 1260.1 232.73 1260.1 293.46"/><polygon class="cls-20" points="1307.81 293.46 1335.72 293.46 1335.72 289.65 1311.63 289.65 1311.63 236.54 1335.72 236.54 1335.72 232.73 1307.81 232.73 1307.81 293.46"/><polygon class="cls-20" points="1335.72 444.22 1335.72 440.41 1259.57 440.44 1259.57 512.44 1335.72 512.42 1335.72 508.6 1263.38 508.63 1263.38 444.25 1335.72 444.22"/><polygon class="cls-10" points="1383.81 232.73 1383.81 247.73 1383.92 291.92 1416.03 291.97 1401.29 232.75 1383.81 232.73"/><polygon class="cls-12" points="1401.29 232.75 1416.03 291.97 1431.77 292.05 1431.65 232.73 1401.29 232.75"/><polygon class="cls-16" points="1431.73 292.01 1438.38 292.01 1438.5 232.84 1431.85 232.84 1431.73 292.01"/><polygon class="cls-20" points="1383.92 236.54 1429.6 236.56 1429.48 288.28 1383.81 288.26 1383.81 292.07 1432.38 292.1 1432.49 232.75 1383.92 232.73 1383.92 236.54"/><polygon class="cls-18" points="1383.81 329.08 1383.81 344.08 1383.92 388.27 1416.03 388.32 1401.29 329.11 1383.81 329.08"/><polygon class="cls-19" points="1401.29 329.11 1416.03 388.32 1431.77 388.4 1431.65 329.08 1401.29 329.11"/><polygon class="cls-16" points="1431.73 388.36 1438.38 388.36 1438.5 329.19 1431.85 329.19 1431.73 388.36"/><polygon class="cls-20" points="1383.92 332.89 1429.6 332.92 1429.48 384.64 1383.81 384.61 1383.81 388.43 1432.38 388.45 1432.49 329.11 1383.92 329.08 1383.92 332.89"/><polygon class="cls-10" points="1462.34 232.73 1462.34 247.73 1462.45 291.92 1494.56 291.97 1479.81 232.75 1462.34 232.73"/><polygon class="cls-12" points="1479.81 232.75 1494.56 291.97 1510.3 292.05 1510.18 232.73 1479.81 232.75"/><polygon class="cls-16" points="1510.26 292.01 1516.91 292.01 1517.03 232.84 1510.38 232.84 1510.26 292.01"/><polygon class="cls-20" points="1462.45 236.54 1508.13 236.56 1508.01 288.28 1462.34 288.26 1462.34 292.07 1510.9 292.1 1511.02 232.75 1462.45 232.73 1462.45 236.54"/><polygon class="cls-10" points="1462.34 329.08 1462.34 344.08 1462.45 388.27 1494.56 388.32 1479.81 329.11 1462.34 329.08"/><polygon class="cls-12" points="1479.81 329.11 1494.56 388.32 1510.3 388.4 1510.18 329.08 1479.81 329.11"/><polygon class="cls-16" points="1510.26 388.36 1516.91 388.36 1517.03 329.19 1510.38 329.19 1510.26 388.36"/><polygon class="cls-20" points="1462.45 332.89 1508.13 332.92 1508.01 384.64 1462.34 384.61 1462.34 388.43 1510.9 388.45 1511.02 329.11 1462.45 329.08 1462.45 332.89"/><polygon class="cls-10" points="1111.66 440.45 1111.66 455.45 1111.66 512.3 1166.72 512.35 1134.71 440.48 1111.66 440.45"/><polygon class="cls-12" points="1166.72 512.35 1186.97 512.43 1186.97 440.45 1134.71 440.48 1166.72 512.35"/><rect class="cls-6" x="1102.91" y="440.53" width="8.76" height="71.83"/><polygon class="cls-20" points="1186.97 444.22 1186.97 440.41 1110.82 440.44 1110.82 512.44 1186.97 512.42 1186.97 508.6 1114.63 508.63 1114.63 444.25 1186.97 444.22"/><rect class="cls-21" x="1076.76" y="404.66" width="276.36" height="7.67"/><rect class="cls-22" x="1353.12" y="404.66" width="189.79" height="7.67"/><rect class="cls-6" x="1086.05" y="412.33" width="267.07" height="5.72"/><rect class="cls-21" x="1076.76" y="306.72" width="276.36" height="7.67"/><rect class="cls-22" x="1353.12" y="306.72" width="189.79" height="7.67"/><rect class="cls-13" x="1086.05" y="314.38" width="267.07" height="5.72"/><path class="cls-2" d="M954.57,294.17v115l81.16-57A85.8,85.8,0,0,0,954.57,294.17Z"/><path class="cls-1" d="M954.57,409.14V465.7a85.82,85.82,0,0,0,81.16-113.56Z"/><path class="cls-8" d="M954.57,465.7V409.14l-53.66,37.69A85.4,85.4,0,0,0,954.57,465.7Z"/><path class="cls-8" d="M868.8,379.93a85.6,85.6,0,0,0,32.11,66.9l53.66-37.69v-115A85.77,85.77,0,0,0,868.8,379.93Z"/><path class="cls-9" d="M954.08,385.68a3.34,3.34,0,0,0-3.34,3.34V552.46a3.34,3.34,0,0,0,6.67,0V389A3.34,3.34,0,0,0,954.08,385.68Z"/><path class="cls-9" d="M980.66,421l-28.59,21.56a3.34,3.34,0,0,0,4,5.33l28.59-21.56a3.34,3.34,0,0,0-4-5.33Z"/><path class="cls-9" d="M956.11,428.54l-22.24-17.09a3.34,3.34,0,0,0-4.06,5.29L952,433.83a3.33,3.33,0,1,0,4.06-5.29Z"/><path class="cls-2" d="M1043.1,370.83V451l56.6-39.76A59.84,59.84,0,0,0,1043.1,370.83Z"/><path class="cls-1" d="M1043.1,451v39.44a59.85,59.85,0,0,0,56.6-79.2Z"/><path class="cls-8" d="M1043.1,490.46V451l-37.42,26.29A59.56,59.56,0,0,0,1043.1,490.46Z"/><path class="cls-8" d="M983.29,430.65a59.7,59.7,0,0,0,22.39,46.66L1043.1,451V370.83A59.81,59.81,0,0,0,983.29,430.65Z"/><path class="cls-9" d="M1043.23,429.54a3.34,3.34,0,0,0-3.34,3.34v114a3.34,3.34,0,1,0,6.67,0v-114A3.34,3.34,0,0,0,1043.23,429.54Z"/><path class="cls-9" d="M1061.16,454.36l-19.94,15a3.34,3.34,0,0,0,4,5.33l19.94-15a3.34,3.34,0,1,0-4-5.33Z"/><path class="cls-9" d="M1045.27,459.64l-15.51-11.92a3.34,3.34,0,1,0-4.06,5.29l15.51,11.92a3.34,3.34,0,0,0,4.07-5.29Z"/><rect class="cls-23" y="546.34" width="2834.65" height="120.4"/><rect class="cls-4" y="666.74" width="2834.65" height="174.21"/><polygon class="cls-2" points="603.13 546.86 0 546.38 0 598.34 497.68 598.34 603.13 546.86"/><rect class="cls-20" y="598.34" width="496.23" height="12.86"/><rect class="cls-20" y="653.37" width="897.2" height="12.86"/><rect class="cls-20" x="1121.97" y="653.37" width="1712.67" height="12.86"/><polygon class="cls-4" points="496.23 611.21 601.68 546.86 496.23 598.34 496.23 611.21"/><polygon class="cls-2" points="675.24 546.86 578.94 598.34 961.05 598.34 1078.27 546.34 1002.59 546.43 675.24 546.86"/><rect class="cls-20" x="578.94" y="598.34" width="382.47" height="12.86"/><polygon class="cls-4" points="961.49 611.21 1078.27 546.34 961.49 598.34 961.49 611.21"/><polygon class="cls-2" points="2042.75 598.34 2834.65 598.34 2834.65 546.49 2139.06 546.86 2042.75 598.34"/><rect class="cls-20" x="2042.75" y="598.34" width="791.89" height="12.86"/><polygon class="cls-4" points="897.2 666.24 926.47 640.34 897.2 653.37 897.2 666.24"/><polygon class="cls-1" points="1205.68 614.37 1287.44 614.37 1330.29 589.77 1251.23 589.77 1205.68 614.37"/><polygon class="cls-4" points="1205.68 614.37 1251.23 589.77 1251.23 582.32 1189.06 614.37 1205.68 614.37"/><polygon class="cls-20" points="1251.23 589.77 1330.29 589.77 1342.85 582.32 1251.23 582.32 1251.23 589.77"/><polygon class="cls-1" points="1427.38 614.37 1509.14 614.37 1551.99 589.77 1472.93 589.77 1427.38 614.37"/><polygon class="cls-4" points="1427.38 614.37 1472.93 589.77 1472.93 582.32 1410.76 614.37 1427.38 614.37"/><polygon class="cls-20" points="1472.93 589.77 1551.99 589.77 1564.55 582.32 1472.93 582.32 1472.93 589.77"/><polygon class="cls-1" points="1639.28 614.37 1721.04 614.37 1763.89 589.77 1684.83 589.77 1639.28 614.37"/><polygon class="cls-4" points="1639.28 614.37 1684.83 589.77 1684.83 582.32 1622.66 614.37 1639.28 614.37"/><polygon class="cls-20" points="1684.83 589.77 1763.89 589.77 1776.45 582.32 1684.83 582.32 1684.83 589.77"/><polygon class="cls-1" points="1829.38 614.37 1911.15 614.37 1953.99 589.77 1874.94 589.77 1829.38 614.37"/><polygon class="cls-4" points="1829.38 614.37 1874.94 589.77 1874.94 582.32 1812.77 614.37 1829.38 614.37"/><polygon class="cls-20" points="1874.94 589.77 1953.99 589.77 1966.56 582.32 1874.94 582.32 1874.94 589.77"/><rect class="cls-20" x="455.03" y="481.19" width="11.44" height="65.15"/><rect class="cls-20" x="470.52" y="481.19" width="11.44" height="65.15"/><rect class="cls-20" x="486.24" y="481.19" width="11.44" height="65.15"/><rect class="cls-20" x="501.57" y="481.19" width="11.44" height="65.15"/><rect class="cls-20" x="517.06" y="481.19" width="11.44" height="65.15"/><rect class="cls-20" x="532.78" y="481.19" width="11.44" height="65.15"/><rect class="cls-20" x="452.18" y="492.02" width="93.31" height="6.91"/><rect class="cls-20" x="836.36" y="481.19" width="11.44" height="65.15"/><rect class="cls-20" x="851.85" y="481.19" width="11.44" height="65.15"/><rect class="cls-20" x="867.57" y="481.19" width="11.44" height="65.15"/><rect class="cls-20" x="882.9" y="481.19" width="11.44" height="65.15"/><rect class="cls-20" x="898.38" y="481.19" width="11.44" height="65.15"/><rect class="cls-20" x="832.55" y="492.02" width="93.31" height="6.91"/><rect class="cls-20" x="914.63" y="481.19" width="11.44" height="65.15"/><rect class="cls-20" x="930.11" y="481.19" width="11.44" height="65.15"/><rect class="cls-20" x="945.84" y="481.19" width="11.44" height="65.15"/><rect class="cls-20" x="961.17" y="481.19" width="11.44" height="65.15"/><rect class="cls-20" x="976.65" y="481.19" width="11.44" height="65.15"/><rect class="cls-20" x="911.77" y="492.02" width="93.31" height="6.91"/><rect class="cls-20" x="992.71" y="481.19" width="11.44" height="65.15"/><rect class="cls-20" x="1008.19" y="481.19" width="11.44" height="65.15"/><rect class="cls-20" x="1023.92" y="481.19" width="11.44" height="65.15"/><rect class="cls-20" x="1039.25" y="481.19" width="11.44" height="65.15"/><rect class="cls-20" x="1054.73" y="481.19" width="11.44" height="65.15"/><rect class="cls-20" x="989.85" y="492.02" width="93.31" height="6.91"/><rect class="cls-20" x="1070.64" y="481.19" width="11.44" height="65.15"/><rect class="cls-20" x="1014.21" y="492.02" width="72.14" height="6.91"/><rect class="cls-20" x="594.02" y="567.13" width="9.11" height="28.91"/><rect class="cls-20" x="710.79" y="567.04" width="9.11" height="28.91"/><rect class="cls-20" x="826.09" y="567.04" width="9.11" height="28.91"/><rect class="cls-20" x="948.15" y="567.04" width="9.11" height="28.91"/><rect class="cls-24" x="957.26" y="567.04" width="3.91" height="28.91"/><rect class="cls-24" x="835.42" y="567.04" width="3.91" height="28.91"/><rect class="cls-24" x="720.11" y="567.04" width="3.91" height="28.91"/><rect class="cls-24" x="603.56" y="567.31" width="3.91" height="28.91"/><rect class="cls-20" x="588.68" y="571.08" width="375.4" height="6.8"/><rect class="cls-20" x="588.68" y="583.77" width="375.4" height="6.8"/><rect class="cls-20" x="551.22" y="336.01" width="4.93" height="28.91"/><rect class="cls-20" x="614.49" y="335.93" width="4.93" height="28.91"/><rect class="cls-12" x="619.54" y="335.93" width="2.12" height="28.91"/><rect class="cls-12" x="556.39" y="336.19" width="2.12" height="28.91"/><rect class="cls-20" x="548.33" y="339.96" width="71.09" height="6.8"/><rect class="cls-20" x="548.33" y="352.66" width="71.09" height="6.8"/><rect class="cls-12" x="619.54" y="339.96" width="24.82" height="6.8"/><rect class="cls-12" x="619.54" y="352.66" width="24.82" height="6.8"/><rect class="cls-20" x="746.8" y="335.88" width="4.93" height="28.91"/><rect class="cls-20" x="810.07" y="335.8" width="4.93" height="28.91"/><rect class="cls-12" x="815.11" y="335.8" width="2.12" height="28.91"/><rect class="cls-24" x="751.97" y="336.06" width="2.12" height="28.91"/><rect class="cls-20" x="743.91" y="339.83" width="71.09" height="6.8"/><rect class="cls-20" x="743.91" y="352.53" width="71.09" height="6.8"/><rect class="cls-12" x="815.11" y="339.83" width="24.82" height="6.8"/><rect class="cls-12" x="815.11" y="352.53" width="24.82" height="6.8"/><rect class="cls-4" x="119.38" y="567.13" width="9.11" height="28.91"/><rect class="cls-4" x="236.16" y="567.04" width="9.11" height="28.91"/><rect class="cls-4" x="351.45" y="567.04" width="9.11" height="28.91"/><rect class="cls-4" x="473.52" y="567.04" width="9.11" height="28.91"/><rect class="cls-6" x="481.67" y="567.04" width="3.91" height="28.91"/><rect class="cls-6" x="359.83" y="567.04" width="3.91" height="28.91"/><rect class="cls-6" x="244.52" y="567.04" width="3.91" height="28.91"/><rect class="cls-6" x="127.97" y="567.31" width="3.91" height="28.91"/><rect class="cls-4" x="114.05" y="571.08" width="375.4" height="6.8"/><rect class="cls-4" x="114.05" y="583.77" width="375.4" height="6.8"/><rect class="cls-4" x="7.6" y="567.04" width="9.11" height="28.91"/><rect class="cls-6" x="15.97" y="567.04" width="3.91" height="28.91"/><rect class="cls-4" y="571.08" width="145.59" height="6.8"/><rect class="cls-4" y="583.77" width="145.59" height="6.8"/><polygon class="cls-20" points="1238.84 452.73 1250.05 452.74 1276.99 418.05 1265.6 418.05 1238.84 452.73"/><polygon class="cls-25" points="1249.35 452.73 1260.56 452.74 1287.5 418.05 1276.1 418.05 1249.35 452.73"/><polygon class="cls-20" points="1259.09 452.73 1270.3 452.74 1297.24 418.05 1285.85 418.05 1259.09 452.73"/><polygon class="cls-25" points="1269.67 452.73 1280.88 452.74 1307.83 418.05 1296.43 418.05 1269.67 452.73"/><polygon class="cls-20" points="1279.42 452.73 1290.63 452.74 1317.57 418.05 1306.17 418.05 1279.42 452.73"/><polygon class="cls-25" points="1289.92 452.73 1301.13 452.74 1328.08 418.05 1316.68 418.05 1289.92 452.73"/><polygon class="cls-20" points="1300.06 452.73 1310.88 452.74 1337.82 418.05 1326.42 418.05 1300.06 452.73"/><path class="cls-26" d="M1244,460.14c2.85,0,5.16-3.32,5.16-7.41h-10.32C1238.84,456.83,1241.15,460.14,1244,460.14Z"/><path class="cls-27" d="M1254.05,460.14c2.73,0,4.95-3.32,4.95-7.41h-9.89C1249.11,456.83,1251.32,460.14,1254.05,460.14Z"/><path class="cls-26" d="M1264.29,460.14c2.92,0,5.29-3.32,5.29-7.41H1259C1259,456.83,1261.37,460.14,1264.29,460.14Z"/><path class="cls-27" d="M1274.56,460.14c2.7,0,4.88-3.32,4.88-7.41h-9.76C1269.67,456.83,1271.86,460.14,1274.56,460.14Z"/><path class="cls-26" d="M1284.66,460.14c2.89,0,5.23-3.32,5.23-7.41h-10.45C1279.44,456.83,1281.78,460.14,1284.66,460.14Z"/><path class="cls-27" d="M1295,460.14c2.8,0,5.07-3.32,5.07-7.41h-10.14C1289.92,456.83,1292.19,460.14,1295,460.14Z"/><path class="cls-26" d="M1305.49,460.14c3,0,5.43-3.32,5.43-7.41h-10.85C1300.06,456.83,1302.49,460.14,1305.49,460.14Z"/><polygon class="cls-20" points="1090.05 452.73 1101.25 452.74 1128.2 418.05 1116.8 418.05 1090.05 452.73"/><polygon class="cls-25" points="1100.55 452.73 1111.76 452.74 1138.71 418.05 1127.31 418.05 1100.55 452.73"/><polygon class="cls-20" points="1110.3 452.73 1121.5 452.74 1148.45 418.05 1137.05 418.05 1110.3 452.73"/><polygon class="cls-25" points="1120.88 452.73 1132.09 452.74 1159.04 418.05 1147.64 418.05 1120.88 452.73"/><polygon class="cls-20" points="1130.62 452.73 1141.83 452.74 1168.78 418.05 1157.38 418.05 1130.62 452.73"/><polygon class="cls-25" points="1141.13 452.73 1152.34 452.74 1179.29 418.05 1167.89 418.05 1141.13 452.73"/><polygon class="cls-20" points="1151.27 452.73 1162.08 452.74 1189.03 418.05 1177.63 418.05 1151.27 452.73"/><path class="cls-26" d="M1095.2,460.14c2.85,0,5.16-3.32,5.16-7.41H1090C1090,456.83,1092.35,460.14,1095.2,460.14Z"/><path class="cls-27" d="M1105.26,460.14c2.73,0,4.95-3.32,4.95-7.41h-9.89C1100.31,456.83,1102.53,460.14,1105.26,460.14Z"/><path class="cls-26" d="M1115.5,460.14c2.92,0,5.29-3.32,5.29-7.41h-10.58C1110.21,456.83,1112.57,460.14,1115.5,460.14Z"/><path class="cls-27" d="M1125.76,460.14c2.7,0,4.88-3.32,4.88-7.41h-9.77C1120.88,456.83,1123.06,460.14,1125.76,460.14Z"/><path class="cls-26" d="M1135.87,460.14c2.89,0,5.23-3.32,5.23-7.41h-10.45C1130.64,456.83,1133,460.14,1135.87,460.14Z"/><path class="cls-27" d="M1146.2,460.14c2.8,0,5.07-3.32,5.07-7.41h-10.14C1141.13,456.83,1143.4,460.14,1146.2,460.14Z"/><path class="cls-26" d="M1156.69,460.14c3,0,5.43-3.32,5.43-7.41h-10.85C1151.27,456.83,1153.7,460.14,1156.69,460.14Z"/><rect class="cls-20" x="603.13" y="538" width="83.65" height="8.86"/><rect class="cls-28" x="612.44" y="530.3" width="83.65" height="8.86"/><rect class="cls-20" x="620.88" y="521.72" width="83.65" height="8.86"/><polygon class="cls-10" points="704.53 530.58 696.09 530.58 696.09 539.17 686.78 539.17 686.78 546.86 733.3 546.86 733.3 521.72 704.53 521.72 704.53 530.58"/><rect class="cls-20" x="1140.08" y="538" width="83.65" height="8.86"/><rect class="cls-28" x="1149.39" y="530.3" width="83.65" height="8.86"/><rect class="cls-20" x="1157.83" y="521.72" width="83.65" height="8.86"/><polygon class="cls-6" points="1241.48 530.58 1233.04 530.58 1233.04 539.17 1223.73 539.17 1223.73 546.86 1270.24 546.86 1270.24 521.72 1241.48 521.72 1241.48 530.58"/><polygon class="cls-6" points="378.36 304.76 391.67 287.76 378.36 287.76 378.36 304.76"/><circle class="cls-6" cx="301.75" cy="293.37" r="17.27"/><path class="cls-20" d="M303.75,276.23a17.26,17.26,0,0,0,0,34.28,17.26,17.26,0,0,0,0-34.28Z"/><path class="cls-4" d="M305.76,279a14.41,14.41,0,1,0,9.3,25.4,17.27,17.27,0,0,0,0-22A14.34,14.34,0,0,0,305.76,279Z"/><circle class="cls-10" cx="702.23" cy="172.08" r="30.56"/><path class="cls-20" d="M705.78,141.75a30.54,30.54,0,0,0,0,60.67,30.54,30.54,0,0,0,0-60.67Z"/><path class="cls-12" d="M708.42,145.61a26.47,26.47,0,1,0,17.09,46.66,31.72,31.72,0,0,0,0-40.39A26.35,26.35,0,0,0,708.42,145.61Z"/><polygon class="cls-28" points="897.2 666.24 1121.97 666.24 1121.97 653.37 1141.8 640.34 926.47 640.34 897.2 666.24"/><rect class="cls-20" x="740.1" y="364.91" width="78.89" height="7.67"/><rect class="cls-10" x="743.65" y="372.58" width="96.54" height="5.72"/><rect class="cls-12" x="817.94" y="364.91" width="22.32" height="7.67"/><rect class="cls-20" x="755.84" y="510.44" width="50.83" height="7.67"/><rect class="cls-10" x="758.13" y="518.11" width="62.2" height="5.72"/><rect class="cls-12" x="805.99" y="510.44" width="14.38" height="7.67"/><rect class="cls-20" x="559.99" y="510.46" width="50.83" height="7.67"/><rect class="cls-10" x="562.28" y="518.13" width="62.2" height="5.72"/><rect class="cls-12" x="610.15" y="510.46" width="14.38" height="7.67"/><rect class="cls-20" x="544.22" y="364.91" width="78.89" height="7.67"/><rect class="cls-10" x="547.77" y="372.58" width="96.61" height="5.72"/><rect class="cls-12" x="622.06" y="364.91" width="22.32" height="7.67"/><polygon class="cls-3" points="1951.56 319.13 1500.19 319.13 1500.19 297.53 1482.96 297.54 1482.96 534.85 1500.19 534.72 1951.56 534.72 1951.56 534.85 1968.78 534.72 1968.78 319.13 1968.78 297.53 1951.56 297.54 1951.56 319.13"/><rect class="cls-4" x="1482.96" y="504.41" width="485.82" height="41.93"/><polygon class="cls-5" points="1968.78 297.53 1968.78 534.72 2152.64 534.72 2152.64 297.53 2055.24 146.5 1968.78 297.53"/><rect class="cls-6" x="1968.78" y="504.41" width="190.35" height="41.93"/><polygon class="cls-7" points="1482.96 297.54 1500.19 297.53 1586.64 146.5 1570.88 146.5 1482.96 297.54"/><polygon class="cls-5" points="1500.19 297.53 1499.96 319.13 1591.43 168.1 1601.95 168.1 1586.64 146.5 1500.19 297.53"/><rect class="cls-3" x="1681.59" y="110.89" width="17.79" height="57.27"/><rect class="cls-5" x="1699.37" y="110.89" width="24.77" height="57.27"/><rect class="cls-7" x="1675.73" y="96.89" width="23.47" height="18.98"/><rect class="cls-5" x="1699.2" y="96.89" width="28.49" height="18.98"/><polygon class="cls-4" points="1591.16 168.21 1494.02 329.06 1944.25 329.06 1951.56 319.13 1951.56 297.54 2026.9 168.1 1591.16 168.21"/><polygon class="cls-7" points="1951.56 297.54 1968.78 297.53 2055.24 146.5 2039.48 146.5 1951.56 297.54"/><polygon class="cls-6" points="1499.96 329.06 1499.96 335.26 1951.56 335.26 1951.56 319.13 1944.25 329.06 1499.96 329.06"/><rect class="cls-5" x="1681.59" y="115.87" width="17.79" height="9.34"/><rect class="cls-4" x="1699.2" y="115.87" width="24.93" height="9.34"/><polygon class="cls-20" points="2240.58 242.58 2008.51 242.58 2008.51 220.98 1991.29 220.99 1991.29 546.4 2008.51 546.27 2240.58 546.27 2240.58 546.4 2257.8 546.27 2257.8 242.58 2257.8 220.98 2240.58 220.99 2240.58 242.58"/><polygon class="cls-29" points="2257.8 220.98 2257.8 546.27 2441.66 546.27 2441.66 220.98 2344.26 69.96 2257.8 220.98"/><polygon class="cls-28" points="1991.29 220.99 2008.51 220.98 2094.97 69.96 2079.21 69.96 1991.29 220.99"/><polygon class="cls-29" points="2008.51 220.98 2008.28 242.58 2099.76 91.56 2110.28 91.56 2094.97 69.96 2008.51 220.98"/><polygon class="cls-4" points="2099.49 91.66 2002.35 252.52 2233.27 252.52 2240.58 242.58 2240.58 220.99 2315.92 91.56 2099.49 91.66"/><polygon class="cls-28" points="2240.58 220.99 2257.8 220.98 2344.26 69.96 2328.49 69.96 2240.58 220.99"/><polygon class="cls-6" points="2008.28 252.52 2008.28 258.71 2240.58 258.71 2240.58 242.58 2233.27 252.52 2008.28 252.52"/><path class="cls-2" d="M837.37,490v43.9l31-21.76A32.76,32.76,0,0,0,837.37,490Z"/><path class="cls-1" d="M837.37,533.87v21.59a32.76,32.76,0,0,0,31-43.35Z"/><path class="cls-8" d="M837.37,555.46V533.87l-20.49,14.39A32.6,32.6,0,0,0,837.37,555.46Z"/><path class="cls-8" d="M804.63,522.72a32.68,32.68,0,0,0,12.26,25.54l20.49-14.39V490A32.74,32.74,0,0,0,804.63,522.72Z"/><path class="cls-2" d="M874.44,512v29.15L895,526.67A21.75,21.75,0,0,0,874.44,512Z"/><path class="cls-1" d="M874.44,541.12v14.34A21.76,21.76,0,0,0,895,526.67Z"/><path class="cls-8" d="M874.44,555.46V541.12l-13.61,9.56A21.65,21.65,0,0,0,874.44,555.46Z"/><path class="cls-8" d="M852.69,533.71a21.7,21.7,0,0,0,8.14,17l13.61-9.56V512A21.75,21.75,0,0,0,852.69,533.71Z"/><path class="cls-9" d="M838.31,522.72a1.89,1.89,0,0,0-1.89,1.89v27.87a1.89,1.89,0,0,0,3.77,0V524.6A1.89,1.89,0,0,0,838.31,522.72Z"/><path class="cls-9" d="M848.44,536.75l-11.27,8.5a1.89,1.89,0,0,0,2.27,3l11.27-8.5a1.89,1.89,0,0,0-2.27-3Z"/><path class="cls-9" d="M839.45,539.73,830.69,533a1.89,1.89,0,0,0-2.3,3l8.77,6.74a1.89,1.89,0,0,0,2.3-3Z"/><path class="cls-2" d="M1266.71,533.17v49.64l35-24.61A37,37,0,0,0,1266.71,533.17Z"/><path class="cls-1" d="M1266.71,582.81v24.42a37.05,37.05,0,0,0,35-49Z"/><path class="cls-8" d="M1266.71,607.23V582.81l-23.17,16.27A36.87,36.87,0,0,0,1266.71,607.23Z"/><path class="cls-8" d="M1229.68,570.2a37,37,0,0,0,13.86,28.88l23.17-16.27V533.17A37,37,0,0,0,1229.68,570.2Z"/><path class="cls-9" d="M1267.76,570.2a2.13,2.13,0,0,0-2.13,2.13v31.52a2.13,2.13,0,0,0,4.26,0V572.33A2.13,2.13,0,0,0,1267.76,570.2Z"/><path class="cls-9" d="M1279.22,586.06l-12.74,9.61a2.13,2.13,0,0,0,2.57,3.4l12.74-9.61a2.13,2.13,0,0,0-2.57-3.4Z"/><path class="cls-9" d="M1269.06,589.43l-9.91-7.62a2.13,2.13,0,1,0-2.6,3.38l9.91,7.62a2.13,2.13,0,0,0,2.6-3.38Z"/><path class="cls-2" d="M142.77,493.41v43.9l31-21.76A32.76,32.76,0,0,0,142.77,493.41Z"/><path class="cls-1" d="M142.77,537.3v21.59a32.76,32.76,0,0,0,31-43.35Z"/><path class="cls-8" d="M142.77,558.89V537.3l-20.49,14.39A32.6,32.6,0,0,0,142.77,558.89Z"/><path class="cls-8" d="M110,526.15a32.68,32.68,0,0,0,12.26,25.54l20.49-14.39v-43.9A32.74,32.74,0,0,0,110,526.15Z"/><path class="cls-9" d="M143.7,526.15a1.89,1.89,0,0,0-1.89,1.89v27.87a1.89,1.89,0,1,0,3.77,0V528A1.89,1.89,0,0,0,143.7,526.15Z"/><path class="cls-9" d="M153.84,540.18l-11.27,8.5a1.89,1.89,0,0,0,2.27,3l11.27-8.5a1.89,1.89,0,0,0-2.27-3Z"/><path class="cls-9" d="M144.85,543.16l-8.77-6.74a1.89,1.89,0,1,0-2.3,3l8.77,6.74a1.89,1.89,0,0,0,2.3-3Z"/><polygon class="cls-22" points="2486.96 319.13 2254.9 319.13 2254.9 297.53 2237.67 297.54 2237.67 534.85 2254.9 534.72 2486.96 534.72 2486.96 534.85 2504.18 534.72 2504.18 319.13 2504.18 297.53 2486.96 297.54 2486.96 319.13"/><rect class="cls-4" x="2237.67" y="431.94" width="266.51" height="114.4"/><polygon class="cls-13" points="2504.18 297.53 2504.18 534.72 2688.04 534.72 2688.04 297.53 2590.64 146.5 2504.18 297.53"/><rect class="cls-6" x="2504.18" y="431.94" width="190.35" height="114.4"/><polygon class="cls-16" points="2237.67 297.54 2254.9 297.53 2341.35 146.5 2325.59 146.5 2237.67 297.54"/><polygon class="cls-13" points="2254.9 297.53 2254.66 319.13 2346.14 168.1 2356.66 168.1 2341.35 146.5 2254.9 297.53"/><path class="cls-4" d="M2248.73,329.06h230.92l7.31-9.94V297.54L2562.3,168.1l-216.44.11Zm255.45-107h0Z"/><polygon class="cls-16" points="2486.96 297.54 2504.18 297.53 2590.64 146.5 2574.88 146.5 2486.96 297.54"/><polygon class="cls-6" points="2254.66 329.06 2254.66 335.26 2486.96 335.26 2486.96 319.13 2479.65 329.06 2254.66 329.06"/><polygon class="cls-16" points="2309.3 222.02 2309.3 319.13 2440.63 319.13 2440.63 222.02 2374.96 193.12 2309.3 222.02"/><polygon class="cls-6" points="2363.46 193.12 2429.12 222.02 2504.18 222.02 2480.12 193.12 2363.46 193.12"/><polygon class="cls-13" points="2440.63 319.13 2504.18 222.02 2440.63 222.02 2440.63 319.13"/><polygon class="cls-30" points="2369.21 195.65 2363.46 193.12 2299.87 222.02 2309.3 222.02 2309.3 230.09 2374.96 201.17 2440.63 231.25 2440.63 222.02 2429.12 222.02 2369.21 195.65"/><polygon class="cls-10" points="1629.16 500.41 1678.2 500.41 1629.16 390.66 1629.16 500.41"/><rect class="cls-5" x="1620.39" y="390.66" width="8.76" height="113.57"/><rect class="cls-5" x="1709.97" y="390.66" width="8.76" height="113.57"/><rect class="cls-5" x="1798.05" y="390.66" width="8.76" height="113.57"/><rect class="cls-5" x="1887.63" y="390.66" width="8.76" height="113.57"/><polygon class="cls-20" points="1632.96 394.47 1632.96 390.66 1629.15 390.66 1629.15 504.22 1679.91 504.22 1679.91 500.41 1632.96 500.41 1632.96 394.47"/><path class="cls-4" d="M1650.23,360.1c-16.48,0-29.84,13.68-29.84,30.56h59.68C1680.07,373.78,1666.71,360.1,1650.23,360.1Z"/><path class="cls-20" d="M1654.62,360.32c-14.33,1.76-25.45,14.66-25.45,30.34h50.91C1680.07,375,1668.94,362.08,1654.62,360.32Z"/><path class="cls-12" d="M1657.36,364.19c-13.62,0-24.4,11.85-24.4,26.47v8.49l45.25,101.26h1.7V390.66h.14a30,30,0,0,0-7.18-20.2A22.56,22.56,0,0,0,1657.36,364.19Z"/><polygon class="cls-10" points="1718.74 500.41 1767.78 500.41 1718.74 390.66 1718.74 500.41"/><polygon class="cls-20" points="1722.54 394.47 1722.54 390.66 1718.72 390.66 1718.72 504.22 1769.48 504.22 1769.48 500.41 1722.54 500.41 1722.54 394.47"/><path class="cls-4" d="M1739.81,360.1c-16.48,0-29.84,13.68-29.84,30.56h59.68C1769.65,373.78,1756.29,360.1,1739.81,360.1Z"/><path class="cls-20" d="M1744.19,360.32c-14.33,1.76-25.45,14.66-25.45,30.34h50.91C1769.65,375,1758.52,362.08,1744.19,360.32Z"/><path class="cls-12" d="M1746.94,364.19c-13.62,0-24.4,11.85-24.4,26.47v8.49l45.25,101.26h1.7V390.66h.14a30,30,0,0,0-7.18-20.2A22.56,22.56,0,0,0,1746.94,364.19Z"/><polygon class="cls-10" points="1806.83 500.41 1855.87 500.41 1806.83 390.66 1806.83 500.41"/><polygon class="cls-20" points="1810.62 394.47 1810.62 390.66 1806.81 390.66 1806.81 504.22 1857.57 504.22 1857.57 500.41 1810.62 500.41 1810.62 394.47"/><path class="cls-4" d="M1827.89,360.1c-16.48,0-29.84,13.68-29.84,30.56h59.68C1857.73,373.78,1844.37,360.1,1827.89,360.1Z"/><path class="cls-20" d="M1832.28,360.32c-14.33,1.76-25.45,14.66-25.45,30.34h50.91C1857.73,375,1846.61,362.08,1832.28,360.32Z"/><path class="cls-12" d="M1835,364.19c-13.62,0-24.4,11.85-24.4,26.47v8.49l45.25,101.26h1.7V390.66h.14a30,30,0,0,0-7.18-20.2A22.56,22.56,0,0,0,1835,364.19Z"/><polygon class="cls-10" points="1896.4 500.41 1945.44 500.41 1896.4 390.66 1896.4 500.41"/><polygon class="cls-20" points="1900.2 394.47 1900.2 390.66 1896.39 390.66 1896.39 504.22 1947.15 504.22 1947.15 500.41 1900.2 500.41 1900.2 394.47"/><path class="cls-4" d="M1917.47,360.1c-16.48,0-29.84,13.68-29.84,30.56h59.68C1947.31,373.78,1934,360.1,1917.47,360.1Z"/><path class="cls-20" d="M1921.86,360.32c-14.33,1.76-25.45,14.66-25.45,30.34h50.91C1947.31,375,1936.18,362.08,1921.86,360.32Z"/><path class="cls-12" d="M1924.6,364.19c-13.62,0-24.4,11.85-24.4,26.47v8.49l45.25,101.26h1.7V390.66h.14a30,30,0,0,0-7.18-20.2A22.56,22.56,0,0,0,1924.6,364.19Z"/><rect class="cls-23" x="1705.54" y="504.65" width="50.83" height="7.67"/><rect class="cls-31" x="1707.83" y="512.32" width="62.2" height="5.72"/><rect class="cls-6" x="1755.69" y="504.65" width="14.38" height="7.67"/><rect class="cls-23" x="1615.74" y="504.67" width="50.83" height="7.67"/><rect class="cls-31" x="1618.02" y="512.34" width="62.2" height="5.72"/><path class="cls-4" d="M1558.93,359.27c-16.48,0-29.84,13.68-29.84,30.56h59.68C1588.77,373,1575.41,359.27,1558.93,359.27Z"/><rect class="cls-6" x="1665.89" y="504.67" width="14.38" height="7.67"/><rect class="cls-5" x="1528.99" y="389.83" width="59.88" height="131.33"/><path class="cls-7" d="M1571.4,362.12a30.61,30.61,0,0,0-17.27,27.71h34.54A30.61,30.61,0,0,0,1571.4,362.12Z"/><rect class="cls-23" x="1883.59" y="504.65" width="50.83" height="7.67"/><rect class="cls-31" x="1885.87" y="512.32" width="62.2" height="5.72"/><rect class="cls-6" x="1933.74" y="504.65" width="14.38" height="7.67"/><rect class="cls-23" x="1793.79" y="504.67" width="50.83" height="7.67"/><rect class="cls-31" x="1796.07" y="512.34" width="62.2" height="5.72"/><rect class="cls-6" x="1843.94" y="504.67" width="14.38" height="7.67"/><rect class="cls-7" x="1554.12" y="389.83" width="34.74" height="131.33"/><rect class="cls-32" x="1564.55" y="404.66" width="24.32" height="116.49"/><rect class="cls-20" x="1657.21" y="364.19" width="2.91" height="136.22"/><rect class="cls-20" x="1632.81" y="390.66" width="47.11" height="3.29"/><rect class="cls-20" x="1632.81" y="446.4" width="47.11" height="3.45"/><rect class="cls-20" x="1746.78" y="364.19" width="2.91" height="136.22"/><rect class="cls-20" x="1722.37" y="390.66" width="47.11" height="3.29"/><rect class="cls-20" x="1722.37" y="446.4" width="47.11" height="3.45"/><rect class="cls-20" x="1834.86" y="364.19" width="2.91" height="136.22"/><rect class="cls-20" x="1810.46" y="390.66" width="47.11" height="3.29"/><rect class="cls-20" x="1810.46" y="446.4" width="47.11" height="3.45"/><rect class="cls-20" x="1924.44" y="364.19" width="2.91" height="136.22"/><rect class="cls-20" x="1900.04" y="390.66" width="47.11" height="3.29"/><rect class="cls-20" x="1900.04" y="446.4" width="47.11" height="3.45"/><rect class="cls-4" x="236.44" y="397.13" width="48.52" height="28.46"/><rect class="cls-6" x="273.02" y="397.13" width="11.94" height="28.46"/><rect class="cls-4" x="306.12" y="397.13" width="48.52" height="28.46"/><rect class="cls-6" x="342.69" y="397.13" width="11.94" height="28.46"/><rect class="cls-4" x="367.77" y="397.13" width="48.52" height="28.46"/><rect class="cls-6" x="404.35" y="397.13" width="11.94" height="28.46"/><rect class="cls-4" x="1142.04" y="283.31" width="45.55" height="23.41"/><rect class="cls-6" x="1177.14" y="283.31" width="10.45" height="23.41"/><rect class="cls-4" x="1242.45" y="282.97" width="45.55" height="23.41"/><rect class="cls-6" x="1277.55" y="282.97" width="10.45" height="23.41"/><rect class="cls-4" x="1142.04" y="380.83" width="45.55" height="23.41"/><rect class="cls-6" x="1177.14" y="380.83" width="10.45" height="23.41"/><rect class="cls-4" x="1242.45" y="380.5" width="45.55" height="23.41"/><rect class="cls-6" x="1277.55" y="380.5" width="10.45" height="23.41"/><rect class="cls-4" x="170.41" y="397.13" width="48.52" height="28.46"/><rect class="cls-6" x="206.98" y="397.13" width="11.94" height="28.46"/><path class="cls-2" d="M1476.75,421.25v80.19l56.6-39.76A59.84,59.84,0,0,0,1476.75,421.25Z"/><path class="cls-1" d="M1476.75,501.44v39.44a59.85,59.85,0,0,0,56.6-79.2Z"/><path class="cls-8" d="M1476.75,540.88V501.44l-37.42,26.29A59.56,59.56,0,0,0,1476.75,540.88Z"/><path class="cls-8" d="M1416.93,481.07a59.7,59.7,0,0,0,22.39,46.66l37.42-26.29V421.25A59.81,59.81,0,0,0,1416.93,481.07Z"/><path class="cls-9" d="M1476.88,480a3.34,3.34,0,0,0-3.34,3.34v114a3.34,3.34,0,1,0,6.67,0v-114A3.34,3.34,0,0,0,1476.88,480Z"/><path class="cls-9" d="M1494.81,504.78l-19.94,15a3.34,3.34,0,0,0,4,5.33l19.94-15a3.34,3.34,0,1,0-4-5.33Z"/><path class="cls-9" d="M1478.91,510.06l-15.51-11.92a3.34,3.34,0,1,0-4.06,5.29l15.51,11.92a3.34,3.34,0,1,0,4.06-5.29Z"/><path class="cls-2" d="M1701.58,424.08v80.19l56.6-39.76A59.84,59.84,0,0,0,1701.58,424.08Z"/><path class="cls-1" d="M1701.58,504.27v39.44a59.85,59.85,0,0,0,56.6-79.2Z"/><path class="cls-8" d="M1701.58,543.71V504.27l-37.42,26.29A59.56,59.56,0,0,0,1701.58,543.71Z"/><path class="cls-8" d="M1641.77,483.9a59.7,59.7,0,0,0,22.39,46.66l37.42-26.29V424.08A59.81,59.81,0,0,0,1641.77,483.9Z"/><path class="cls-9" d="M1701.72,482.79a3.34,3.34,0,0,0-3.34,3.34v114a3.34,3.34,0,1,0,6.67,0v-114A3.34,3.34,0,0,0,1701.72,482.79Z"/><path class="cls-9" d="M1719.64,507.61l-19.94,15a3.34,3.34,0,0,0,4,5.33l19.94-15a3.34,3.34,0,0,0-4-5.33Z"/><path class="cls-9" d="M1703.75,512.89,1688.24,501a3.34,3.34,0,0,0-4.07,5.29l15.51,11.92a3.34,3.34,0,0,0,4.06-5.29Z"/><path class="cls-2" d="M1908.38,424.62V504.8L1965,465A59.84,59.84,0,0,0,1908.38,424.62Z"/><path class="cls-1" d="M1908.38,504.8v39.44A59.85,59.85,0,0,0,1965,465Z"/><path class="cls-8" d="M1908.38,544.24V504.8L1871,531.09A59.56,59.56,0,0,0,1908.38,544.24Z"/><path class="cls-8" d="M1848.56,484.43A59.7,59.7,0,0,0,1871,531.09l37.42-26.29V424.62A59.81,59.81,0,0,0,1848.56,484.43Z"/><path class="cls-9" d="M1908.51,483.33a3.34,3.34,0,0,0-3.34,3.34v114a3.34,3.34,0,0,0,6.67,0v-114A3.34,3.34,0,0,0,1908.51,483.33Z"/><path class="cls-9" d="M1926.44,508.15l-19.94,15a3.34,3.34,0,0,0,4,5.33l19.94-15a3.34,3.34,0,0,0-4-5.33Z"/><path class="cls-9" d="M1910.54,513.42,1895,501.5a3.34,3.34,0,1,0-4.06,5.29l15.51,11.92a3.34,3.34,0,0,0,4.06-5.29Z"/><polygon class="cls-10" points="2193.2 371.07 2226.45 371.07 2193.2 296.64 2193.2 371.07"/><polygon class="cls-12" points="2226.45 371.07 2226.45 296.64 2193.2 296.64 2226.45 371.07"/><polygon class="cls-10" points="2029.4 371.07 2063.51 371.07 2029.4 296.64 2029.4 371.07"/><polygon class="cls-12" points="2063.51 371.07 2063.51 296.64 2029.4 296.64 2063.51 371.07"/><polygon class="cls-10" points="2111.3 371.07 2144.55 371.07 2111.3 296.64 2111.3 371.07"/><polygon class="cls-14" points="2144.55 371.07 2144.55 296.64 2111.3 296.64 2144.55 371.07"/><polygon class="cls-10" points="2193.2 491.23 2226.45 491.23 2193.2 416.8 2193.2 491.23"/><polygon class="cls-14" points="2226.45 491.23 2226.45 416.8 2193.2 416.8 2226.45 491.23"/><polygon class="cls-10" points="2029.4 491.23 2063.51 491.23 2029.4 416.8 2029.4 491.23"/><polygon class="cls-12" points="2063.51 491.23 2063.51 416.8 2029.4 416.8 2063.51 491.23"/><polygon class="cls-25" points="2111.3 521.62 2144.55 521.62 2111.3 416.8 2111.3 521.62"/><polygon class="cls-25" points="2144.55 521.62 2144.55 416.8 2111.3 416.8 2144.55 521.62"/><rect class="cls-29" x="2018.64" y="296.64" width="10.76" height="74.43"/><rect class="cls-29" x="2100.54" y="296.64" width="10.76" height="74.43"/><rect class="cls-29" x="2182.44" y="296.64" width="10.76" height="74.43"/><rect class="cls-29" x="2018.64" y="416.8" width="10.76" height="74.43"/><rect class="cls-29" x="2100.54" y="416.8" width="10.76" height="104.82"/><rect class="cls-29" x="2182.44" y="416.8" width="10.76" height="74.43"/><polygon class="cls-20" points="2029.21 371.19 2063.51 371.19 2063.51 366.51 2033.9 366.51 2033.9 301.23 2063.51 301.23 2063.51 296.55 2029.21 296.55 2029.21 371.19"/><polygon class="cls-20" points="2110.26 371.19 2144.55 371.19 2144.55 366.51 2114.94 366.51 2114.94 301.23 2144.55 301.23 2144.55 296.55 2110.26 296.55 2110.26 371.19"/><polygon class="cls-20" points="2192.16 371.18 2226.45 371.18 2226.45 366.49 2196.84 366.49 2196.84 301.22 2226.45 301.22 2226.45 296.53 2192.16 296.53 2192.16 371.18"/><polygon class="cls-20" points="2029.21 491.35 2063.51 491.35 2063.51 486.67 2033.9 486.67 2033.9 421.39 2063.51 421.39 2063.51 416.71 2029.21 416.71 2029.21 491.35"/><polygon class="cls-20" points="2110.26 521.74 2144.55 521.74 2144.55 517.06 2114.94 517.06 2114.94 421.39 2144.55 421.39 2144.55 416.71 2110.26 416.71 2110.26 521.74"/><polygon class="cls-20" points="2192.16 491.34 2226.45 491.34 2226.45 486.65 2196.84 486.65 2196.84 421.38 2226.45 421.38 2226.45 416.69 2192.16 416.69 2192.16 491.34"/><rect class="cls-28" x="2176.13" y="491.23" width="42.32" height="7.67"/><rect class="cls-24" x="2178.04" y="498.9" width="51.79" height="5.72"/><rect class="cls-29" x="2217.89" y="491.23" width="11.97" height="7.67"/><rect class="cls-28" x="2011.55" y="491.23" width="42.32" height="7.67"/><rect class="cls-24" x="2013.45" y="498.9" width="51.79" height="5.72"/><rect class="cls-29" x="2053.31" y="491.23" width="11.97" height="7.67"/><rect class="cls-28" x="2176.13" y="370.8" width="42.32" height="7.67"/><rect class="cls-24" x="2178.04" y="378.46" width="51.79" height="5.72"/><rect class="cls-29" x="2217.89" y="370.8" width="11.97" height="7.67"/><rect class="cls-28" x="2011.55" y="370.8" width="42.32" height="7.67"/><rect class="cls-24" x="2013.45" y="378.46" width="51.79" height="5.72"/><rect class="cls-29" x="2053.31" y="370.8" width="11.97" height="7.67"/><rect class="cls-20" x="1486.9" y="538" width="83.65" height="8.86"/><rect class="cls-28" x="1496.21" y="530.3" width="83.65" height="8.86"/><rect class="cls-20" x="1504.65" y="521.72" width="83.65" height="8.86"/><polygon class="cls-6" points="1588.3 530.58 1579.87 530.58 1579.87 539.17 1570.55 539.17 1570.55 546.86 1617.07 546.86 1617.07 521.72 1588.3 521.72 1588.3 530.58"/><rect class="cls-29" x="2045.17" y="538" width="83.65" height="8.86"/><rect class="cls-28" x="2054.49" y="530.3" width="83.65" height="8.86"/><rect class="cls-29" x="2062.92" y="521.72" width="83.65" height="8.86"/><polygon class="cls-24" points="2146.57 530.58 2138.14 530.58 2138.14 539.17 2128.82 539.17 2128.82 546.86 2175.34 546.86 2175.34 521.72 2146.57 521.72 2146.57 530.58"/><polygon class="cls-4" points="1094.02 572.34 1177.67 572.34 1224.05 546.86 1140.39 546.86 1094.02 572.34"/><rect class="cls-20" x="2133.96" y="62.92" width="17.79" height="106.59"/><polygon class="cls-29" points="2151.75 169.51 2176.51 134.82 2176.51 62.92 2151.75 62.92 2151.75 169.51"/><polygon class="cls-6" points="2176.51 134.82 2206.69 91.55 2176.51 91.55 2176.51 134.82"/><rect class="cls-20" x="1159.55" y="347.37" width="27.91" height="3.34"/><rect class="cls-20" x="1260.21" y="250.8" width="27.91" height="3.34"/><rect class="cls-20" x="2033.9" y="321.33" width="29.61" height="3.34"/><rect class="cls-20" x="2196.29" y="321.33" width="30.16" height="3.34"/><rect class="cls-20" x="2033.9" y="442.2" width="29.61" height="3.34"/><rect class="cls-20" x="2196.29" y="442.2" width="30.16" height="3.34"/><rect class="cls-20" x="1111.52" y="250.8" width="27.91" height="3.34"/><rect class="cls-21" x="2228.23" y="430.84" width="276.36" height="7.67"/><rect class="cls-22" x="2504.58" y="430.84" width="189.79" height="7.67"/><rect class="cls-6" x="2237.51" y="438.51" width="267.07" height="5.72"/><polygon class="cls-10" points="2331.39 306.66 2361.9 306.66 2331.39 234.39 2331.39 306.66"/><polygon class="cls-12" points="2361.9 306.66 2361.9 234.39 2331.39 234.39 2361.9 306.66"/><polygon class="cls-20" points="2330.43 306.77 2361.9 306.77 2361.9 302.22 2334.73 302.22 2334.73 238.83 2361.9 238.83 2361.9 234.28 2330.43 234.28 2330.43 306.77"/><polygon class="cls-14" points="2362.77 306.76 2393.28 306.76 2362.77 234.49 2362.77 306.76"/><polygon class="cls-12" points="2393.28 306.76 2393.28 234.49 2362.77 234.49 2393.28 306.76"/><polygon class="cls-20" points="2361.81 306.87 2393.28 306.87 2393.28 302.32 2366.11 302.32 2366.11 238.93 2393.28 238.93 2393.28 234.38 2361.81 234.38 2361.81 306.87"/><polygon class="cls-14" points="2394.24 306.66 2424.75 306.66 2394.24 234.39 2394.24 306.66"/><polygon class="cls-12" points="2424.75 306.66 2424.75 234.39 2394.24 234.39 2424.75 306.66"/><polygon class="cls-20" points="2393.28 306.77 2424.75 306.77 2424.75 302.22 2397.58 302.22 2397.58 238.83 2424.75 238.83 2424.75 234.28 2393.28 234.28 2393.28 306.77"/><polygon class="cls-10" points="2331.39 420.27 2361.9 420.27 2331.39 348 2331.39 420.27"/><polygon class="cls-12" points="2361.9 420.27 2361.9 348 2331.39 348 2361.9 420.27"/><polygon class="cls-20" points="2330.43 420.38 2361.9 420.38 2361.9 415.83 2334.73 415.83 2334.73 352.44 2361.9 352.44 2361.9 347.89 2330.43 347.89 2330.43 420.38"/><polygon class="cls-14" points="2362.77 420.37 2393.28 420.37 2362.77 348.09 2362.77 420.37"/><polygon class="cls-12" points="2393.28 420.37 2393.28 348.09 2362.77 348.09 2393.28 420.37"/><polygon class="cls-20" points="2361.81 420.47 2393.28 420.47 2393.28 415.92 2366.11 415.92 2366.11 352.54 2393.28 352.54 2393.28 347.99 2361.81 347.99 2361.81 420.47"/><polygon class="cls-14" points="2394.24 420.27 2424.75 420.27 2394.24 348 2394.24 420.27"/><polygon class="cls-12" points="2424.75 420.27 2424.75 348 2394.24 348 2424.75 420.27"/><polygon class="cls-20" points="2393.28 420.38 2424.75 420.38 2424.75 415.83 2397.58 415.83 2397.58 352.44 2424.75 352.44 2424.75 347.89 2393.28 347.89 2393.28 420.38"/><polygon class="cls-18" points="2456.24 420.27 2486.75 420.27 2456.24 348 2456.24 420.27"/><polygon class="cls-19" points="2486.75 420.27 2486.75 348 2456.24 348 2486.75 420.27"/><polygon class="cls-20" points="2455.28 420.38 2486.75 420.38 2486.75 415.83 2459.58 415.83 2459.58 352.44 2486.75 352.44 2486.75 347.89 2455.28 347.89 2455.28 420.38"/><rect class="cls-13" x="2320.94" y="234.26" width="9.47" height="72.64"/><rect class="cls-13" x="2320.94" y="347.93" width="9.47" height="72.64"/><polygon class="cls-19" points="2331.39 527.27 2361.9 527.27 2331.39 455 2331.39 527.27"/><polygon class="cls-18" points="2361.9 527.27 2361.9 455 2331.39 455 2361.9 527.27"/><polygon class="cls-20" points="2330.43 527.38 2361.9 527.38 2361.9 522.83 2334.73 522.83 2334.73 459.44 2361.9 459.44 2361.9 454.89 2330.43 454.89 2330.43 527.38"/><polygon class="cls-18" points="2362.77 527.37 2393.28 527.37 2362.77 455.1 2362.77 527.37"/><polygon class="cls-19" points="2393.28 527.37 2393.28 455.1 2362.77 455.1 2393.28 527.37"/><polygon class="cls-20" points="2361.81 527.47 2393.28 527.47 2393.28 522.92 2366.11 522.92 2366.11 459.54 2393.28 459.54 2393.28 454.99 2361.81 454.99 2361.81 527.47"/><polygon class="cls-19" points="2394.24 527.27 2424.75 527.27 2394.24 455 2394.24 527.27"/><polygon class="cls-18" points="2424.75 527.27 2424.75 455 2394.24 455 2424.75 527.27"/><polygon class="cls-20" points="2393.28 527.38 2424.75 527.38 2424.75 522.83 2397.58 522.83 2397.58 459.44 2424.75 459.44 2424.75 454.89 2393.28 454.89 2393.28 527.38"/><rect class="cls-6" x="2320.94" y="454.93" width="9.47" height="72.64"/><polygon class="cls-10" points="2265.39 420.27 2295.9 420.27 2265.39 348 2265.39 420.27"/><polygon class="cls-12" points="2295.9 420.27 2295.9 348 2265.39 348 2295.9 420.27"/><polygon class="cls-20" points="2264.43 420.38 2295.9 420.38 2295.9 415.83 2268.73 415.83 2268.73 352.44 2295.9 352.44 2295.9 347.89 2264.43 347.89 2264.43 420.38"/><rect class="cls-13" x="2254.94" y="347.93" width="9.47" height="72.64"/><rect class="cls-13" x="2445.94" y="347.93" width="9.47" height="72.64"/><polygon class="cls-10" points="2460.27 527.18 2487.33 527.18 2460.27 456.1 2460.27 527.18"/><polygon class="cls-12" points="2487.33 527.18 2487.33 456.1 2460.27 456.1 2487.33 527.18"/><polygon class="cls-10" points="2263.28 527.18 2291.03 527.18 2263.28 456.1 2263.28 527.18"/><polygon class="cls-12" points="2291.03 527.18 2291.03 456.1 2263.28 456.1 2291.03 527.18"/><rect class="cls-6" x="2254.52" y="456.1" width="8.76" height="71.08"/><rect class="cls-6" x="2451.52" y="456.1" width="8.76" height="71.08"/><polygon class="cls-20" points="2263.13 527.28 2291.03 527.28 2291.03 523.47 2266.94 523.47 2266.94 459.84 2291.03 459.84 2291.03 456.03 2263.13 456.03 2263.13 527.28"/><polygon class="cls-20" points="2459.43 527.27 2487.33 527.27 2487.33 523.46 2463.24 523.46 2463.24 459.83 2487.33 459.83 2487.33 456.02 2459.43 456.02 2459.43 527.27"/><path class="cls-2" d="M2614.57,294.17v115l81.16-57A85.8,85.8,0,0,0,2614.57,294.17Z"/><path class="cls-1" d="M2614.57,409.14V465.7a85.82,85.82,0,0,0,81.16-113.56Z"/><path class="cls-8" d="M2614.57,465.7V409.14l-53.66,37.69A85.4,85.4,0,0,0,2614.57,465.7Z"/><path class="cls-8" d="M2528.8,379.93a85.6,85.6,0,0,0,32.11,66.9l53.66-37.69v-115A85.77,85.77,0,0,0,2528.8,379.93Z"/><path class="cls-9" d="M2614.08,385.68a3.34,3.34,0,0,0-3.34,3.34V552.46a3.34,3.34,0,1,0,6.67,0V389A3.34,3.34,0,0,0,2614.08,385.68Z"/><path class="cls-9" d="M2640.66,421l-28.59,21.56a3.34,3.34,0,0,0,4,5.33l28.59-21.56a3.34,3.34,0,0,0-4-5.33Z"/><path class="cls-9" d="M2616.11,428.54l-22.24-17.09a3.34,3.34,0,1,0-4.06,5.29L2612,433.83a3.34,3.34,0,1,0,4.06-5.29Z"/><path class="cls-2" d="M2703.1,370.83V451l56.6-39.76A59.84,59.84,0,0,0,2703.1,370.83Z"/><path class="cls-1" d="M2703.1,451v39.44a59.85,59.85,0,0,0,56.6-79.2Z"/><path class="cls-8" d="M2703.1,490.46V451l-37.42,26.29A59.56,59.56,0,0,0,2703.1,490.46Z"/><path class="cls-8" d="M2643.29,430.65a59.7,59.7,0,0,0,22.39,46.66L2703.1,451V370.83A59.81,59.81,0,0,0,2643.29,430.65Z"/><path class="cls-9" d="M2703.23,429.54a3.34,3.34,0,0,0-3.34,3.34v114a3.34,3.34,0,1,0,6.67,0v-114A3.34,3.34,0,0,0,2703.23,429.54Z"/><path class="cls-9" d="M2721.16,454.36l-19.94,15a3.34,3.34,0,0,0,4,5.33l19.94-15a3.34,3.34,0,0,0-4-5.33Z"/><path class="cls-9" d="M2705.27,459.64l-15.51-11.92a3.34,3.34,0,0,0-4.07,5.29l15.51,11.92a3.34,3.34,0,0,0,4.06-5.29Z"/><rect class="cls-4" x="2441.38" y="402.27" width="48.52" height="28.46"/><rect class="cls-6" x="2482.96" y="402.27" width="11.94" height="28.46"/><rect class="cls-4" x="2249.02" y="402.27" width="48.52" height="28.46"/><rect class="cls-6" x="2285.6" y="402.27" width="11.94" height="28.46"/></g></g></svg>